<?xml version="1.0" encoding="utf-8"?>
<!-- Generator: Adobe Illustrator 26.0.1, SVG Export Plug-In . SVG Version: 6.00 Build 0)  -->
<svg version="1.1" id="Layer_1" xmlns="http://www.w3.org/2000/svg" xmlns:xlink="http://www.w3.org/1999/xlink" x="0px" y="0px"
	 viewBox="0 0 800 800" style="enable-background:new 0 0 800 800;" xml:space="preserve">
<style type="text/css">
	.st0{fill:#646CFF;}
	.st1{fill:#EBEDFC;}
</style>
<path class="st0" d="M800,400.8C800,180,621,1.1,400.2,1.1S0.5,180,0.5,400.8c0,147.8,80.2,276.9,199.5,346.1
	c-11.1-48.1-17.7-105-17.7-122V391.1c0-19.1,3.5-32.3,19-43.5L466.7,88.4c43.8-31.5-49.3,117.5-5.5,149l141.1,103.7
	c32.8,23.6,32.2,33,32.2,73.4l0,156.8c0,27.9,5,90.5,4.6,150C736.8,648.4,800,532,800,400.8z"/>
<path class="st1" d="M634.6,571.4l0-156.8c0-40.4,0.6-49.8-32.2-73.4L461.2,237.4c-43.8-31.5,49.3-180.5,5.5-149L201.3,347.6
	c-15.5,11.1-19,24.4-19,43.5v233.8c-1.6,132.1,0-1.7-2.2,109.6c64.5,43.3,147.2,66,220.2,66c89.6,0,172.3-29.5,238.9-79.2
	C639.6,661.8,634.6,599.3,634.6,571.4z M507.5,623.2c-0.7,4.4-5,7.9-9.4,7.9H318.8c-4.4,0-8.7-3.6-9.4-7.9
	c-10.5-63.1,37.9-117.7,99.1-117.7C469.6,505.5,518,560.1,507.5,623.2z"/>
<path class="st0" d="M408.4,505.5c-61.1,0-109.5,54.6-99.1,117.7c0.7,4.4,5,7.9,9.4,7.9h179.3c4.4,0,8.7-3.6,9.4-7.9
	C518,560.1,469.6,505.5,408.4,505.5z"/>
</svg>
