<svg xmlns="http://www.w3.org/2000/svg" viewBox="0 0 800 800"><defs><style>.a{fill:#e0e0e0;}</style></defs><path class="a" d="M659.17,375.48,577.88,294.2V200.3a30.74,30.74,0,1,0-61.48,0v32.41l-60.52-60.52c-29.93-29.91-81.95-29.86-111.81.05L140.82,375.48A30.75,30.75,0,1,0,184.32,419L387.54,215.71c6.62-6.58,18.29-6.58,24.88,0L615.68,419a30.75,30.75,0,1,0,43.49-43.48Z"/><path class="a" d="M410.68,274.06a15.1,15.1,0,0,0-21.36,0L210.55,452.78a15.15,15.15,0,0,0-4.42,10.7V593.83a55.39,55.39,0,0,0,55.38,55.39H350V512.14H450V649.22h88.52a55.4,55.4,0,0,0,55.39-55.39V463.48a15.08,15.08,0,0,0-4.43-10.7Z"/></svg>