<svg id="Layer_1" data-name="Layer 1" xmlns="http://www.w3.org/2000/svg" viewBox="0 0 800 800"><defs><style>.cls-1{fill:#292929;fill-rule:evenodd;}</style></defs><g id="Page-1"><g id="Dribbble-Light-Preview"><g id="icons"><path id="information-_1446_" data-name="information-[#1446]" class="cls-1" d="M426.75,311.12h0c0,14.07-12,25.48-26.75,25.48s-26.75-11.41-26.75-25.48,12-25.48,26.75-25.48,26.75,11.42,26.75,25.48M587.28,603.84H426.75V425.48c0-14.06-12-25.48-26.75-25.48s-26.75,11.42-26.75,25.48V603.84H212.72C198,603.84,186,592.43,186,578.36V221.64c0-14.07,12-25.48,26.75-25.48H587.28c14.77,0,26.75,11.41,26.75,25.48V578.36c0,14.07-12,25.48-26.75,25.48M132.46,196.16V603.84c0,28.16,23.94,51,53.51,51H614c29.57,0,53.51-22.8,53.51-51V196.16c0-28.13-23.94-51-53.51-51H186c-29.57,0-53.51,22.83-53.51,51"/></g></g></g></svg>